# xmcd
# Track frame offsets:
# 150
# 17022
# 36382
# 54046
# 75770
# 93081
# 108029
# 125175
# 139777
# 155467
# 172342
# 192294
# 212549
#
# Disc length: 3079 seconds
# Revision: 0
# Processed by: cddbd v1.5.1PL0 Copyright (c) Steve Scherf et al.
# Submitted via: VisiTrax 2.9.10.228 - For more info visit www.synapsa.com
#
DISCID=a00c050d
DTITLE=Justin.J>J> - Time Inbetween
DYEAR=2005
DGENRE=
TTITLE0=Windy harbour.
TTITLE1=Red Mud Floor.
TTITLE2=Canola.
TTITLE3=Time Inbetween.
TTITLE4=Touch Me Lord.
TTITLE5=Shine.
TTITLE6=Walking Forward.
TTITLE7=Millicent.
TTITLE8=Too Young.
TTITLE9=Sticks 'N Stones.
TTITLE10=Destination.
TTITLE11=Georgia.
TTITLE12=Esperance.
EXTD=
EXTT0=
EXTT1=
EXTT2=
EXTT3=
EXTT4=
EXTT5=
EXTT6=
EXTT7=
EXTT8=
EXTT9=
EXTT10=
EXTT11=
EXTT12=
PLAYORDER=
